/* XPM */
static char * cerberus32_xpm[] = {
"32 32 233 2",
"  	c None",
". 	c #3392E2",
"+ 	c #00A2FA",
"@ 	c #009DF5",
"# 	c #3694E3",
"$ 	c #5A8DD7",
"% 	c #9786C5",
"& 	c #4C90DB",
"* 	c #009EF6",
"= 	c #089DF2",
"- 	c #529FE4",
"; 	c #6BA4E2",
"> 	c #019BF3",
", 	c #009EF5",
"' 	c #179AED",
") 	c #039CF3",
"! 	c #029DF4",
"~ 	c #079CF2",
"{ 	c #0A9CF1",
"] 	c #0B9DF1",
"^ 	c #7BBBEE",
"/ 	c #FFFEF7",
"( 	c #0096F4",
"_ 	c #3D98E4",
": 	c #2B95E6",
"< 	c #289FED",
"[ 	c #FFFFFF",
"} 	c #82A0D9",
"| 	c #1593E9",
"1 	c #1A9AED",
"2 	c #3198E6",
"3 	c #1D97EA",
"4 	c #30A1EC",
"5 	c #FFFFFE",
"6 	c #54B2EF",
"7 	c #009FF8",
"8 	c #3B94E1",
"9 	c #009AF2",
"0 	c #019EF5",
"a 	c #6190D7",
"b 	c #049DF3",
"c 	c #089CF2",
"d 	c #0B9CF1",
"e 	c #079CF1",
"f 	c #0094F1",
"g 	c #34A1EB",
"h 	c #7EB3E9",
"i 	c #FFFFFC",
"j 	c #B8B9DD",
"k 	c #B6D0EF",
"l 	c #FDDFEA",
"m 	c #CACEE8",
"n 	c #029CF3",
"o 	c #409CE6",
"p 	c #2798E9",
"q 	c #089CF1",
"r 	c #079DF2",
"s 	c #0095EF",
"t 	c #56B0EE",
"u 	c #A8CCF0",
"v 	c #FFF0F1",
"w 	c #E9E1F0",
"x 	c #8BCBF5",
"y 	c #8CBFEC",
"z 	c #90B3E4",
"A 	c #61B8F2",
"B 	c #2395E7",
"C 	c #4692DE",
"D 	c #099CF1",
"E 	c #0F93EA",
"F 	c #C8DFF5",
"G 	c #FFFFFB",
"H 	c #FFE9EA",
"I 	c #FFEFF3",
"J 	c #87C3F1",
"K 	c #0593EC",
"L 	c #0499F0",
"M 	c #009CF4",
"N 	c #5A9AE0",
"O 	c #DDE3F2",
"P 	c #FEFFFF",
"Q 	c #DDE3F3",
"R 	c #58ACEB",
"S 	c #008AE9",
"T 	c #009BF7",
"U 	c #008DEB",
"V 	c #45A0E7",
"W 	c #8DC6F1",
"X 	c #FFFCFC",
"Y 	c #F7E9F2",
"Z 	c #B0B8E1",
"` 	c #009CF5",
" .	c #059DF3",
"..	c #4096E0",
"+.	c #6595D9",
"@.	c #5795DD",
"#.	c #4396E1",
"$.	c #0B9CF0",
"%.	c #0A9DF2",
"&.	c #75B1E7",
"*.	c #D4E1F3",
"=.	c #0A9DF1",
"-.	c #1692E8",
";.	c #A2C9EF",
">.	c #008CEB",
",.	c #069DF2",
"'.	c #009AF3",
").	c #EEE4EF",
"!.	c #299AEA",
"~.	c #38A2EB",
"{.	c #67AEE9",
"].	c #079AF0",
"^.	c #089BF1",
"/.	c #009EF4",
"(.	c #058AE7",
"_.	c #DFD5EA",
":.	c #2F96E5",
"<.	c #3B99E4",
"[.	c #9ED9FA",
"}.	c #079BF1",
"|.	c #029DF3",
"1.	c #4598E1",
"2.	c #3DA6EC",
"3.	c #A2C6EE",
"4.	c #319AE7",
"5.	c #4298E2",
"6.	c #4099E3",
"7.	c #A1D7F9",
"8.	c #448BD9",
"9.	c #2497E9",
"0.	c #128DE5",
"a.	c #C3D8F2",
"b.	c #029BF2",
"c.	c #0098F4",
"d.	c #FFF0F3",
"e.	c #FFFFFD",
"f.	c #2697E8",
"g.	c #38A4EC",
"h.	c #3E98E3",
"i.	c #079EF3",
"j.	c #339AE7",
"k.	c #7CBAED",
"l.	c #D5DEF1",
"m.	c #0097F3",
"n.	c #0C90E9",
"o.	c #A7C8ED",
"p.	c #0090F0",
"q.	c #4097E3",
"r.	c #7193D6",
"s.	c #019EF4",
"t.	c #0492EC",
"u.	c #E2EAF6",
"v.	c #D4D7ED",
"w.	c #3E9FE8",
"x.	c #009AF6",
"y.	c #2A8EE1",
"z.	c #72BDEF",
"A.	c #FFF5F7",
"B.	c #F9F5FA",
"C.	c #BFBDDF",
"D.	c #3C95E1",
"E.	c #1199EE",
"F.	c #0C98EE",
"G.	c #DDE2F3",
"H.	c #FFE9ED",
"I.	c #EEE2F0",
"J.	c #FFF1F2",
"K.	c #A4CDEF",
"L.	c #1292EA",
"M.	c #2A9BEA",
"N.	c #3B99E5",
"O.	c #0096EF",
"P.	c #6AB5EE",
"Q.	c #CCDCF2",
"R.	c #FFFFF9",
"S.	c #F4DAE8",
"T.	c #94B3E2",
"U.	c #6BB6ED",
"V.	c #7FAFE4",
"W.	c #4CABED",
"X.	c #039DF3",
"Y.	c #139DF0",
"Z.	c #019BF2",
"`.	c #038EE9",
" +	c #55ADEC",
".+	c #ACC5E9",
"++	c #B0C3E8",
"@+	c #DCDFF1",
"#+	c #FFFDF9",
"$+	c #BDC9E9",
"%+	c #1E98EA",
"&+	c #059DF2",
"*+	c #6CA3E1",
"=+	c #37A8EF",
"-+	c #0090ED",
";+	c #64A0E0",
">+	c #0D9CF0",
",+	c #3D95E2",
"'+	c #59A2E4",
")+	c #5A99DF",
"!+	c #3495E4",
"~+	c #3994E0",
"{+	c #1F99EB",
"]+	c #179AEC",
"^+	c #039EF4",
"/+	c #9AC1EC",
"(+	c #5B95D9",
"_+	c #229BEB",
":+	c #2596E8",
"<+	c #099DF2",
"[+	c #5CA6E5",
"}+	c #86ADE1",
"|+	c #009BF3",
"1+	c #0F9EF1",
"2+	c #608DD5",
"3+	c #0597EF",
"4+	c #1E98EB",
"5+	c #3594E1",
"6+	c #2997E7",
"7+	c #059AF1",
"8+	c #3BA0E8",
"9+	c #3D94E1",
"0+	c #449DE5",
"a+	c #0099F2",
"b+	c #00A1F8",
"c+	c #2F95E4",
"d+	c #618FD7",
"e+	c #5396DB",
"f+	c #2196E8",
"g+	c #608ED6",
"h+	c #0C9BF0",
"i+	c #4F90D9",
"j+	c #3591DF",
"                                                                ",
"                                                                ",
"                                    . + @ # $                   ",
"                            %   & * = - ; > ,                   ",
"                          ' ) ! ~ { ] ^ / ( { _                 ",
"                        : { { { { ] < [ } @ { |                 ",
"                  1 2 3 { { { { { 4 5 6 7 8 9 0                 ",
"                a b c { d e f g h i j k l [ m n o               ",
"            p q r { { s t u v [ [ [ w x y z A d B               ",
"          C D { { { E F [ [ [ G H G [ I J K L d M               ",
"          N { { { s O P P Q R S T U V W X Y Z `  ...+.@.        ",
"          #.$.{ %.&.[ [ *.s d { { { { =.-.;.[ >.{ { ,.,         ",
"            r { '.).[ [ !.{ { { { { { { { ~.{.].{ { { ^.        ",
"            /.{ (.[ [ _.M { { { { { { { { D d { { { { ^.        ",
"          :.{ { <.[ [ [.}.{ { { { { { { { { { { { { { |.        ",
"        1.= { { 2.[ [ 3.r { { { { { { { { { { { { { { 4.        ",
"        5.{ { { 6.[ [ 7.}.{ { { { { { { { { { { { { r 8.        ",
"        9.d { { 0.[ [ a.b.{ { { { { { { { { { { { { ,           ",
"          @ { { c.d.[ e.f.{ { { { { { { { g.h.i.{ { { #.        ",
"        j.d { { =.k.[ [ l.m.{ { { { { d n.o.[ p.{ { { q.        ",
"      r.s.{ { { { t.u.P P v.w.x.'.c.y.z.A.B.C.` { { { D.        ",
"      E.{ { { { { { F.G.[ [ [ H.I.J.[ [ K.L., d { { d M.        ",
"    N.{ { { { { { { { O.P.Q.R.[ [ [ S.T.U.V.W.{ { { X.          ",
"    Y.{ { { { { { { { { d Z.`. +.+[ ++@+#+[ $+b { { %+          ",
"    &+{ { { { { { { { { { { { { /.*+R.=+-+;+>+d { { ,+          ",
"    9 { { { { { { { { { { { { { { i.'+e.)+b.{ { { { !+          ",
"    ~+d { d {+]+{ { { { { { { { { { ^+/+v x.{ { { , (+          ",
"      n e _+  :+{ { { <+{ { { { { { c [+}+|+{ q 1+2+            ",
"              3+{ q 4+5+6+{ { 7+8+9+0+a+, b+c+d+                ",
"              e+f+g+      h+r i+                                ",
"                            j+                                  ",
"                                                                "};
