/* XPM */
static char * cerberus16_xpm[] = {
"16 16 102 2",
"  	c None",
". 	c #3B97E4",
"+ 	c #1F9CED",
"@ 	c #2299EB",
"# 	c #3C96E2",
"$ 	c #1A99EC",
"% 	c #019DF4",
"& 	c #079DF2",
"* 	c #6BBEF4",
"= 	c #67B6EE",
"- 	c #1B98EB",
"; 	c #2698E8",
"> 	c #199AED",
", 	c #019BF2",
"' 	c #0094EF",
") 	c #69B9F0",
"! 	c #B6CFED",
"~ 	c #96C9F2",
"{ 	c #2DA8F1",
"] 	c #0F9BF0",
"^ 	c #089DF2",
"/ 	c #2AA2EF",
"( 	c #C9E2F8",
"_ 	c #FFFFFD",
": 	c #FFFFF9",
"< 	c #EAEDF8",
"[ 	c #54A7E9",
"} 	c #15A2F3",
"| 	c #069CF2",
"1 	c #1299ED",
"2 	c #FFFFFE",
"3 	c #B3D8F5",
"4 	c #0A93EC",
"5 	c #0092F2",
"6 	c #2EA3ED",
"7 	c #BFD7F2",
"8 	c #75BAF0",
"9 	c #169BEE",
"0 	c #279BEA",
"a 	c #059EF3",
"b 	c #7EC1F2",
"c 	c #FFFAFA",
"d 	c #0094F0",
"e 	c #0A9CF1",
"f 	c #109CF0",
"g 	c #1E9EEE",
"h 	c #099BF1",
"i 	c #2699E9",
"j 	c #A2D0F3",
"k 	c #D7EAFA",
"l 	c #0099F1",
"m 	c #119CEF",
"n 	c #1F9AEB",
"o 	c #97C8F0",
"p 	c #E1EEFA",
"q 	c #0098F1",
"r 	c #099CF1",
"s 	c #089CF1",
"t 	c #1797E7",
"u 	c #299AE7",
"v 	c #0B9CF1",
"w 	c #60B6F1",
"x 	c #FFFFFF",
"y 	c #31A2EE",
"z 	c #309FEB",
"A 	c #58B4F2",
"B 	c #2699EA",
"C 	c #049DF3",
"D 	c #0096F0",
"E 	c #BFDCF5",
"F 	c #FFFFFC",
"G 	c #8BC6F2",
"H 	c #78BFF2",
"I 	c #AED6F5",
"J 	c #B9D9F4",
"K 	c #2BA1ED",
"L 	c #1E9AEB",
"M 	c #169CEF",
"N 	c #0097F1",
"O 	c #4CAFF0",
"P 	c #96CFF3",
"Q 	c #FCFBFD",
"R 	c #C0C3E4",
"S 	c #CCE2F5",
"T 	c #49ABEE",
"U 	c #2398E9",
"V 	c #019CF3",
"W 	c #0C97ED",
"X 	c #B7DDF4",
"Y 	c #188BE4",
"Z 	c #039BF2",
"` 	c #089CF2",
" .	c #2699E8",
"..	c #0E9CF0",
"+.	c #2B96E6",
"@.	c #35A4EE",
"#.	c #70BAEF",
"$.	c #1E98EA",
"%.	c #1B99EB",
"&.	c #1499ED",
"*.	c #349AE7",
"=.	c #3799E6",
"                                ",
"                . + @ #         ",
"            $ % & * = -         ",
"        ; > , ' ) ! ~ {         ",
"      ] ^ / ( _ : < [ }         ",
"      | 1 2 3 4 5 6 7 8 9 0     ",
"      a b c d e e e f g e h     ",
"    i | j k l e e e e e e m     ",
"    n ^ o p q e e e r s e t     ",
"    u v w x y e v | z A e B     ",
"    C e D E F G H I J K e L     ",
"  M e e e N O P Q R S T e U     ",
"  V e r e e e r W X Y Z `       ",
"   ...+.r ^ r e s @.#.& >       ",
"        $.  %.&.  *.=.          ",
"                                "};
