/* XPM */
static char * cerberus64_xpm[] = {
"64 64 509 2",
"  	c None",
". 	c #FF6791",
"+ 	c #5783D0",
"@ 	c #658BD3",
"# 	c #00A3FC",
"$ 	c #00A4FB",
"% 	c #0A95EC",
"& 	c #478AD9",
"* 	c #6F93D5",
"= 	c #B897C9",
"- 	c #1F96E9",
"; 	c #079DF2",
"> 	c #0A9CF1",
", 	c #0B9CF0",
"' 	c #009DF4",
") 	c #8886C9",
"! 	c #7489CD",
"~ 	c #00A0F9",
"{ 	c #069DF3",
"] 	c #029EF4",
"^ 	c #039FF4",
"/ 	c #02A0F5",
"( 	c #0B9CF1",
"_ 	c #009EF6",
": 	c #BA96C5",
"< 	c #958AC8",
"[ 	c #8688C9",
"} 	c #8789CA",
"| 	c #6784CE",
"1 	c #B391C5",
"2 	c #6091D9",
"3 	c #079CF2",
"4 	c #6086D0",
"5 	c #C9C0E1",
"6 	c #C7B5DA",
"7 	c #D7ADD1",
"8 	c #009BF5",
"9 	c #0894EC",
"0 	c #5F89D3",
"a 	c #00A1F7",
"b 	c #0B9BF0",
"c 	c #009EF5",
"d 	c #049DF3",
"e 	c #009DF5",
"f 	c #D3D4EC",
"g 	c #FFFFFF",
"h 	c #FFEBED",
"i 	c #0099F4",
"j 	c #069EF3",
"k 	c #8494D3",
"l 	c #009FF6",
"m 	c #0C9CF0",
"n 	c #428DDC",
"o 	c #FFFFFD",
"p 	c #FFD9E2",
"q 	c #009CF7",
"r 	c #708CD1",
"s 	c #778FD2",
"t 	c #258EE4",
"u 	c #0094F0",
"v 	c #FFFAF5",
"w 	c #FFFEFF",
"x 	c #C8D6EF",
"y 	c #FFB3C5",
"z 	c #00A2FA",
"A 	c #4B77CB",
"B 	c #3592E1",
"C 	c #0A9DF1",
"D 	c #0594ED",
"E 	c #DDDEEE",
"F 	c #FEFFFF",
"G 	c #FFF8F9",
"H 	c #2989DF",
"I 	c #1B92E7",
"J 	c #0A9BF0",
"K 	c #00A1F9",
"L 	c #688BD1",
"M 	c #0B98EF",
"N 	c #688CD2",
"O 	c #079EF3",
"P 	c #0297F0",
"Q 	c #DDE1F0",
"R 	c #339AE7",
"S 	c #059FF4",
"T 	c #009BF2",
"U 	c #009CF4",
"V 	c #4192DF",
"W 	c #0397EF",
"X 	c #0C9BF0",
"Y 	c #119DF1",
"Z 	c #E8D4E6",
"` 	c #FFFFFC",
" .	c #52ABEA",
"..	c #099CF1",
"+.	c #1673D4",
"@.	c #D9BEDB",
"#.	c #24A2F0",
"$.	c #089DF2",
"%.	c #00A0F6",
"&.	c #BA99CA",
"*.	c #428EDC",
"=.	c #FFECEB",
"-.	c #F7FFFF",
";.	c #2E90E1",
">.	c #528CD7",
",.	c #7CB0E6",
"'.	c #CEADD3",
").	c #E8D0E3",
"!.	c #FFFBF8",
"~.	c #FFF8F6",
"{.	c #75A0DE",
"].	c #059EF3",
"^.	c #2B9FEC",
"/.	c #35AEF3",
"(.	c #6692D7",
"_.	c #4A96E0",
":.	c #2389E0",
"<.	c #058BE7",
"[.	c #5E96DB",
"}.	c #7DC7F5",
"|.	c #C8B9DD",
"1.	c #FDFCFD",
"2.	c #E6A5C9",
"3.	c #FFDFE4",
"4.	c #5F95DA",
"5.	c #00A1F8",
"6.	c #C088BB",
"7.	c #A278BA",
"8.	c #2B81D9",
"9.	c #6DB2EB",
"0.	c #E0BBD9",
"a.	c #FFF6F5",
"b.	c #FFF1F0",
"c.	c #FFD4DE",
"d.	c #FAE0EB",
"e.	c #ECDEEC",
"f.	c #009FF8",
"g.	c #5C8CD5",
"h.	c #4D8BD8",
"i.	c #0B8EE7",
"j.	c #83AFE4",
"k.	c #DCE0F2",
"l.	c #FEE4ED",
"m.	c #A3A2D5",
"n.	c #38A1EB",
"o.	c #3498E5",
"p.	c #3179D2",
"q.	c #0099F5",
"r.	c #009EF7",
"s.	c #4A8FDB",
"t.	c #89BFED",
"u.	c #1992E8",
"v.	c #3C90DF",
"w.	c #099DF2",
"x.	c #178EE5",
"y.	c #DAE3F2",
"z.	c #FFF8F5",
"A.	c #CAB5D9",
"B.	c #3A95E2",
"C.	c #1794E9",
"D.	c #1593E9",
"E.	c #009AF3",
"F.	c #B86AAC",
"G.	c #00A2F7",
"H.	c #089EF3",
"I.	c #568ED7",
"J.	c #FFFBFC",
"K.	c #FFE4E9",
"L.	c #FFD1DD",
"M.	c #FFCEDA",
"N.	c #FFE8EB",
"O.	c #E2D6EA",
"P.	c #3991E1",
"Q.	c #039FF5",
"R.	c #069DF2",
"S.	c #BA92C8",
"T.	c #338DDE",
"U.	c #FFFEFA",
"V.	c #FFD3DF",
"W.	c #6BAFEA",
"X.	c #2C78D2",
"Y.	c #009BF6",
"Z.	c #009EF8",
"`.	c #009AF6",
" +	c #2C82D9",
".+	c #6F9DDC",
"++	c #B3C0E6",
"@+	c #FFF3F1",
"#+	c #9996CE",
"$+	c #009CFB",
"%+	c #928DCA",
"&+	c #6796D8",
"*+	c #C196C7",
"=+	c #BA90C7",
"-+	c #148FE7",
";+	c #FFECF1",
">+	c #FFF5F6",
",+	c #468BD9",
"'+	c #0097F4",
")+	c #3A94E1",
"!+	c #CBD0EA",
"~+	c #FFE7E9",
"{+	c #FFD9E5",
"]+	c #0993EC",
"^+	c #7B8ECE",
"/+	c #009FF7",
"(+	c #628FD5",
"_+	c #A690CA",
":+	c #039EF4",
"<+	c #069CF2",
"[+	c #B3C2E5",
"}+	c #FFFEFE",
"|+	c #FFEFF2",
"1+	c #2295E9",
"2+	c #009DF6",
"3+	c #8191D1",
"4+	c #ECEBF4",
"5+	c #0094F1",
"6+	c #009FF5",
"7+	c #9A82C2",
"8+	c #00A4FC",
"9+	c #1B86E0",
"0+	c #FFEDEE",
"a+	c #FFF1F2",
"b+	c #2198EB",
"c+	c #099EF2",
"d+	c #009AF5",
"e+	c #A2A7D8",
"f+	c #1384E0",
"g+	c #5F85CE",
"h+	c #428FDC",
"i+	c #7DB1E5",
"j+	c #B4C3E6",
"k+	c #B0BEE4",
"l+	c #E8DDEB",
"m+	c #ABA9D7",
"n+	c #1092E9",
"o+	c #18A6F5",
"p+	c #5A83CF",
"q+	c #FFD4E0",
"r+	c #FFF9F7",
"s+	c #138CE6",
"t+	c #089CF1",
"u+	c #2193E6",
"v+	c #50B2F1",
"w+	c #0096F4",
"x+	c #D2BCDD",
"y+	c #53B3F2",
"z+	c #7189D0",
"A+	c #3E7ED0",
"B+	c #80A2DB",
"C+	c #009AF2",
"D+	c #C479B1",
"E+	c #16A2F3",
"F+	c #7097D7",
"G+	c #39B5F8",
"H+	c #4791DD",
"I+	c #0C96ED",
"J+	c #7FAAE0",
"K+	c #3EA7EC",
"L+	c #A485C3",
"M+	c #4E8EDA",
"N+	c #7FB9EA",
"O+	c #3F90DF",
"P+	c #2297EA",
"Q+	c #7FB6E8",
"R+	c #3E93E1",
"S+	c #8797D2",
"T+	c #7192D4",
"U+	c #7FABE1",
"V+	c #3EA6ED",
"W+	c #00A2F8",
"X+	c #7993D4",
"Y+	c #829AD5",
"Z+	c #3EB1F4",
"`+	c #7184CB",
" @	c #5D88D1",
".@	c #3D9FE6",
"+@	c #5DA4E4",
"@@	c #00A0F7",
"#@	c #0796EE",
"$@	c #2D7DD6",
"%@	c #9EC2EB",
"&@	c #089CF2",
"*@	c #009BF3",
"=@	c #FFF7F4",
"-@	c #FFF4F2",
";@	c #158BE5",
">@	c #358DDF",
",@	c #B87DB7",
"'@	c #019FF5",
")@	c #BAB7DE",
"!@	c #AAB9E2",
"~@	c #069CF1",
"{@	c #019DF3",
"]@	c #CEBADB",
"^@	c #A3BDE7",
"/@	c #6287CF",
"(@	c #029DF3",
"_@	c #9D9BD1",
":@	c #0A93EB",
"<@	c #2889DD",
"[@	c #FAF8FB",
"}@	c #2687DF",
"|@	c #009DF7",
"1@	c #BAA9D3",
"2@	c #0091EF",
"3@	c #5288D4",
"4@	c #5493DB",
"5@	c #CBC7E5",
"6@	c #FFEEF2",
"7@	c #0098F2",
"8@	c #5E87D1",
"9@	c #E1E0F0",
"0@	c #FFF3F2",
"a@	c #0097F3",
"b@	c #8B9CD6",
"c@	c #8D86C9",
"d@	c #00A0F5",
"e@	c #2A88DD",
"f@	c #FEF7FA",
"g@	c #FEFEFF",
"h@	c #FFD9E3",
"i@	c #258FE3",
"j@	c #059CF2",
"k@	c #039BF2",
"l@	c #1694E9",
"m@	c #C0BBDD",
"n@	c #FFFDFB",
"o@	c #E7CEE2",
"p@	c #5388D3",
"q@	c #16A3F3",
"r@	c #4799E2",
"s@	c #FAF3F7",
"t@	c #B6CEED",
"u@	c #5490D9",
"v@	c #009CF8",
"w@	c #029CF3",
"x@	c #0096F2",
"y@	c #3D84D7",
"z@	c #7EA3DC",
"A@	c #C7DBF2",
"B@	c #FFF0F1",
"C@	c #AABCE5",
"D@	c #2196E9",
"E@	c #BC9BC9",
"F@	c #9D90CA",
"G@	c #3F8CDC",
"H@	c #529EE2",
"I@	c #FFE1E5",
"J@	c #D8BCDC",
"K@	c #C7BADD",
"L@	c #C8C9E8",
"M@	c #E8CEE2",
"N@	c #FFECEF",
"O@	c #FFFBF6",
"P@	c #7C90D1",
"Q@	c #019BF2",
"R@	c #9EA8DA",
"S@	c #A785C0",
"T@	c #089FF3",
"U@	c #338FE0",
"V@	c #FFE9EF",
"W@	c #FFE7EE",
"X@	c #84ABE1",
"Y@	c #008BE9",
"Z@	c #0A9DF2",
"`@	c #049FF4",
" #	c #02A0F6",
".#	c #3095E5",
"+#	c #1692E8",
"@#	c #A7C4E9",
"##	c #FFE2EB",
"$#	c #E8D1E6",
"%#	c #E4A5C6",
"&#	c #8F79BE",
"*#	c #0083E3",
"=#	c #049BF1",
"-#	c #54A4E7",
";#	c #5F99DE",
">#	c #3D8BDC",
",#	c #029FF4",
"'#	c #079CF1",
")#	c #619CDD",
"!#	c #AFCEEF",
"~#	c #FFE2E6",
"{#	c #FFF4F3",
"]#	c #FFC9D7",
"^#	c #C0D9F2",
"/#	c #C5BEDE",
"(#	c #E0CFE3",
"_#	c #C8DCF4",
":#	c #039AF1",
"<#	c #059DF3",
"[#	c #9197D2",
"}#	c #4098E4",
"|#	c #0491EC",
"1#	c #3A8CDC",
"2#	c #92ACDE",
"3#	c #C6DAF2",
"4#	c #FFF7FA",
"5#	c #DFDCEE",
"6#	c #288AE0",
"7#	c #0F93EA",
"8#	c #0096EF",
"9#	c #A5A5D6",
"0#	c #D0E2F5",
"a#	c #4876CC",
"b#	c #80B3E7",
"c#	c #CBBDDE",
"d#	c #FFD2E1",
"e#	c #84A3DC",
"f#	c #5597DD",
"g#	c #8C7CC2",
"h#	c #049EF4",
"i#	c #6C9ADA",
"j#	c #FBF2F7",
"k#	c #FFE0E9",
"l#	c #2498E9",
"m#	c #049EF3",
"n#	c #1D7FDB",
"o#	c #687ECA",
"p#	c #F3D8E6",
"q#	c #5CABE9",
"r#	c #58ABEA",
"s#	c #5688D4",
"t#	c #FFF1F1",
"u#	c #FFEDF1",
"v#	c #149BEF",
"w#	c #189DEF",
"x#	c #8389CC",
"y#	c #8E90CD",
"z#	c #039DF3",
"A#	c #2C99E9",
"B#	c #FFF7F9",
"C#	c #DACDE4",
"D#	c #0C8DE6",
"E#	c #5B8CD4",
"F#	c #5580CD",
"G#	c #ABA6D6",
"H#	c #CFB8DA",
"I#	c #7A8BCF",
"J#	c #879CD6",
"K#	c #069FF4",
"L#	c #989DD3",
"M#	c #E1D0E6",
"N#	c #2490E5",
"O#	c #00A3FB",
"P#	c #838BCD",
"Q#	c #4990DB",
"R#	c #E2DCEC",
"S#	c #FFC7D6",
"T#	c #5495DC",
"U#	c #6598DB",
"V#	c #039EF3",
"W#	c #6D93D5",
"X#	c #5A8FD8",
"Y#	c #5A8ED6",
"Z#	c #FFD0D9",
"`#	c #FFCAD8",
" $	c #FFB0C7",
".$	c #8C87C8",
"+$	c #0C9AF0",
"@$	c #0D97ED",
"#$	c #8698D6",
"$$	c #1A93E8",
"%$	c #00A0F8",
"&$	c #389AE6",
"*$	c #8188CB",
"=$	c #5C9ADE",
"-$	c #5B9FE2",
";$	c #58A2E5",
">$	c #0096F1",
",$	c #238BE1",
"'$	c #1294EA",
")$	c #00A2F9",
"!$	c #628ED6",
"~$	c #1491E8",
"{$	c #6588D2",
"]$	c #458FDB",
"^$	c #7C91D1",
"/$	c #0B94EC",
"($	c #71A1DD",
"_$	c #5BA4E4",
":$	c #4D9CE2",
"<$	c #79A0DB",
"[$	c #0391EB",
"}$	c #029FF5",
"|$	c #03A0F5",
"1$	c #6385D0",
"2$	c #3B9EE7",
"3$	c #698ED4",
"4$	c #089EF2",
"5$	c #00A2FB",
"6$	c #6E83CB",
"7$	c #C686BC",
"8$	c #129CF0",
"9$	c #7C90D0",
"0$	c #957CC0",
"a$	c #AF87C1",
"b$	c #B990C5",
"c$	c #B892C7",
"d$	c #5B8DD5",
"e$	c #6092D7",
"f$	c #2094E7",
"g$	c #498AD8",
"h$	c #0B91EA",
"i$	c #059DF2",
"j$	c #2C94E6",
"                                                                                                                                ",
"                                                                                                                                ",
"                                                                                                                                ",
"                                                                              .                                                 ",
"                                                                        + @ # $ $ % & *                                         ",
"                                                                    = - ; > > > > > > , ' )                                     ",
"                                                                  ! ~ > > > { ] ^ / ( > > _ :                                   ",
"                                                      < [ } | 1 2 3 > > > ( 4 5 6 7 8 > > > 9                                   ",
"                                                    0 a b b b c d > > > > > e f g h i > > > j k                                 ",
"                                                    l > > > > > > > > > > m n o g p q > > > b r                                 ",
"                                                s t , > > > > > > > > > > u v w x y z > > > > A                                 ",
"                                              B C > > > > > > > > > > > D E F G H I J > > > > K                                 ",
"                                    L K M   N O > > > > > > > > > > > P Q F g R ( > S T > > > U                                 ",
"                                    _ > ( V W > > > > > > > > > > X Y Z F `  .../ _ +.@.#.$.> %.                                ",
"                                  &.] > > > > > > > > > > > > ( %.*.=.g -.;.>.,.'.).!.F ~.{.].> ^.                              ",
"                            /.(._.:.( > > > > > > > > , l <.[.}.|.g g 1.2.3.g g g g g g g 4.( > 5.6.                            ",
"                        7.$ ( ( > > > > > > > > ..' 8.9.0.a.g g g g g g g g g g g b.c.d.e.f.> > ( g.                            ",
"                      h.%.> > > > > > > > > > i.j.k.g g g g g g g g g g l.m.n.o.p.q.r.s.t...> > > u.                            ",
"                      v.> > > > > > > > > w.x.y.g g g g g g g g g g g g g g z.A.B.e ( C.D.> > > > E.                            ",
"                    F.G.> > > > > > > > H.I.J.F g g g g g g g K.L.M.N.g g g g g g O.P.Q.> R.> > > e                             ",
"                    S./ > > > > > > > , T.U.g g g g g g V.W.X.Y.Z.f.`. +.+++@+g g g g #+$+%+].> > ] &+      *+                  ",
"                    =+/ > > > > > > > -+;+g g g g F >+,+r.m > > > > > > ( ].'+)+!+g g g ~+{+_ > > > m ]+^+/+_ (+                ",
"                    _+:+> > > > > > <+[+g g g g }+|+1+w.> > > > > > > > > > > > 2+3+4+g g U.5+> > > > > { > > 6+7+              ",
"                      8+> > > > > > 9+0+g g g g a+b+m > > > > > > > > > > > > > > c+d+e+g g f+> > > > > > > > , g+              ",
"                      h+> > > > > ..i+g g g g F j+<+> > > > > > > > > > > > > > > > R.k+l+m+n+> > > > > > > > > o+              ",
"                      p+b > > > > 2+q+g g g g r+s+> > > > > > > > > > > > > > > > > t+u+2+j > > > > > > > > > > v+              ",
"                        c > > > > w+g g g g g x+6+> > > > > > > > > > > > > > > > > > > > > > > > > > > > > > > y+              ",
"                      z+d > > > > A+g g g g F B+b > > > > > > > > > > > > > > > > > > > > > > > > > > > > > > > C+              ",
"                    D+E+> > > > ( F+g g g g g G+> > > > > > > > > > > > > > > > > > > > > > > > > > > > > > > b H+              ",
"                    I+> > > > > ( J+g g g g g K+> > > > > > > > > > > > > > > > > > > > > > > > > > > > > > > ] L+              ",
"                  M+w.> > > > > ( N+g g g g g O+> > > > > > > > > > > > > > > > > > > > > > > > > > > > > > > P+                ",
"                  6+> > > > > > ( Q+g g g g g R+> > > > > > > > > > > > > > > > > > > > > > > > > > > > > > $.S+                ",
"                T+c+> > > > > > ( U+g g g g g V+> > > > > > > > > > > > > > > > > > > > > > > > > > > > > > W+                  ",
"                X+( > > > > > > ( Y+g g g g g Z+> > > > > > > > > > > > > > > > > > > > > > > > > > > > > w.`+                  ",
"                 @w.> > > > > > > .@g g g g g +@> > > > > > > > > > > > > > > > > > > > > > > > > > > > > @@                    ",
"                  #@( > > > > > > $@g g g g g %@&@> > > > > > > > > > > > > > > > > > > > > > > > > > > > U                     ",
"                    *@> > > > > > '+=@g g g g -@;@> > > > > > > > > > > > > > > > > ( E.O > > > > > > > > , >@                  ",
"                  ,@'@> > > > > > ] )@g g g g F !@~@> > > > > > > > > > > > > > > > {@]@^@/@S > > > > > > > (@_@                ",
"                  :@> > > > > > > > <@g g g g g [@}@( > > > > > > > > > > > > > > ( |@1@g g 2@> > > > > > > b 3@                ",
"                4@&@> > > > > > > > %.5@g g g g }+6@7@b > > > > > > > > > > > > @@8@9@g g 0@a@> > > > > > > ( b@                ",
"              c@d@> > > > > > > > > > e@f@g g g g g@h@i@j@( > > > > > > > , k@l@m@g g g n@o@_ > > > > > > > ( p@                ",
"              q@> > > > > > > > > > > w.r@` g g g g w s@t@u@v@6+] w@c x@y@z@A@B@g g g C@D@E@j > > > > > > > S F@                ",
"            G@( > > > > > > > > > > > > $.H@g g g g g g g g I@J@K@L@M@N@g F g g g O@P@l X l > > > > > > > > Q@R@                ",
"          S@%.> > > > > > > > > > > > > > T@U@V@g g g g g g g g g g g g g g g W@X@Y@Z@d `@> > > > > > > > >  #                  ",
"          .#> > > > > > > > > > > > > > > > , +#@###g g g g g g g g g g $#%#&#*#K =#:+-#;#( > > > > > > > > >#                  ",
"          ,#> > > > > > > > > > > > > > > > > > '#`.)#!#~#g g g g g g g g g g {#]#^#/#(#_#:#> > > > > > > <#[#                  ",
"        }#b > > > > > > > > > > > > > > > > > > > > ( <+|#1#2#3#V@F g 4#5#g F g g g g g a+6#> > > > > > > 7#                    ",
"        5.> > > > > > > > > > > > > > > > > > > > > > > > > w.k@8#9#g g 0#a#b#c#d#o g g g e#w.> > > > > ( f#                    ",
"      g#h#> > > > > > > > > > > > > > > > > > > > > > > > > > > > %.i#j#F k#l#m#_ n#o#p#q#6+> > > > > > {@                      ",
"      r#, > > > > > > > > > > > > > > > > > > > > > > > > > > > > > w.s#t#}+u#v#> > w#X , > > > > > > > j x#                    ",
"      y#z#> > > > > > > > > > > > > > > > > > > > > > > > > > > > > > c+A#B#g C#D#e ( > > > > > > > > > ( E#                    ",
"        ]+> > > > > > > > > > > > > > > > > > > > > > > > > > > > > > > c+F#g g G#H#w@> > > > > > > > > O I#                    ",
"        J#3 > > > > > > > :+w.> > > > > > > > > > > > > > > > > > > > > > K#L#g g M#e > > > > > > > > > N#                      ",
"          O#> > > > > > ' P#Q#> > > > > > > > > > > > > > > > > > > > > > > q R#g S#~ > > > > > > > > %.T#                      ",
"          U#, > > > > V#W#  X#> > > > > > > > > > > > > > > > > > > > > > > Y#Z#`# $2+> > > > > > > (@.$                        ",
"            +$> ( m @$#$    $$> > > > > > > > > > > > > > > > > > > > > > > c f.%$K ( > > > > b G.&$*$                          ",
"              =$-$;$        >$> > > > > > > $.,$'$> > > > > > > ( ( Z@)$e m > > > > > > > m 8+!$                                ",
"                            ~$> > > > ( )${$]$  ^$w.> > > > > /$($_$:$    <$[$:+}$/ |$O#1$2$                                    ",
"                            3$4$( w.5$6$7$        8$( > > > ; 9$              0$a$b$c$                                          ",
"                              d$e$                  f$, > $.g$                                                                  ",
"                                                      h$i$j$                                                                    ",
"                                                                                                                                ",
"                                                                                                                                ",
"                                                                                                                                "};
